<svg width="89" height="95" viewBox="0 0 89 95" fill="none" xmlns="http://www.w3.org/2000/svg">
<g id="Heart">
<g id="Group 38">
<g id="Group 20">
<g id="Rectangle 743" filter="url(#filter0_d_73_2880)">
<rect x="23.2807" width="59.04" height="59.04" rx="29.52" transform="rotate(15 23.2807 0)" fill="#418CFD"/>
</g>
</g>
<g id="Group 21">
<g id="Iconsax/Bold/heart" clip-path="url(#clip0_73_2880)">
<path id="Vector" d="M50.0718 29.1679C48.44 28.7306 46.767 29.1327 45.5303 30.1057C45.2322 29.358 44.7639 28.69 44.1626 28.1549C43.5613 27.6197 42.8435 27.2321 42.0662 27.0228C39.2985 26.2812 36.4498 27.9335 35.7034 30.7192C35.4159 31.7921 35.3215 32.8296 35.3726 33.8289C35.5892 38.7183 39.2574 42.5902 41.232 43.9117C41.5095 44.102 42.0144 44.2373 42.3499 44.2112C44.7206 44.0541 49.8334 42.535 52.4656 38.409C53.0095 37.5691 53.4465 36.6234 53.734 35.5505C54.4804 32.7648 52.8395 29.9095 50.0718 29.1679Z" fill="#FAFAFA"/>
</g>
</g>
</g>
</g>
<defs>
<filter id="filter0_d_73_2880" x="0.227136" y="6.62714" width="87.8547" height="87.8547" filterUnits="userSpaceOnUse" color-interpolation-filters="sRGB">
<feFlood flood-opacity="0" result="BackgroundImageFix"/>
<feColorMatrix in="SourceAlpha" type="matrix" values="0 0 0 0 0 0 0 0 0 0 0 0 0 0 0 0 0 0 127 0" result="hardAlpha"/>
<feOffset dy="14.4"/>
<feGaussianBlur stdDeviation="7.2"/>
<feComposite in2="hardAlpha" operator="out"/>
<feColorMatrix type="matrix" values="0 0 0 0 0.254902 0 0 0 0 0.54902 0 0 0 0 0.992157 0 0 0 0.2 0"/>
<feBlend mode="normal" in2="BackgroundImageFix" result="effect1_dropShadow_73_2880"/>
<feBlend mode="normal" in="SourceGraphic" in2="effect1_dropShadow_73_2880" result="shape"/>
</filter>
<clipPath id="clip0_73_2880">
<rect width="22.4" height="22.4" fill="white" transform="translate(36 22.4) rotate(15)"/>
</clipPath>
</defs>
</svg>
