<svg width="48" height="48" viewBox="0 0 48 48" fill="none" xmlns="http://www.w3.org/2000/svg">
<mask id="mask0_478_3987" style="mask-type:luminance" maskUnits="userSpaceOnUse" x="3" y="0" width="42" height="39">
<path d="M3.03125 0H44.8698V38.6667H3.03125V0Z" fill="white"/>
</mask>
<g mask="url(#mask0_478_3987)">
<path fill-rule="evenodd" clip-rule="evenodd" d="M30.5156 34.6718C38.651 33.203 44.8698 26.0312 44.8698 17.4739C44.8698 7.86971 37.026 0.00512695 27.4375 0.00512695H11.4551C8.34345 0.00512695 6.78333 3.76562 8.98113 5.96834V5.96834C9.63676 6.62544 10.5269 6.99471 11.4551 6.99471H27.4375C33.1927 6.99471 37.8958 11.7135 37.8958 17.4739C37.8958 23.2395 33.1927 27.9583 27.4375 27.9583V27.9583C25.5131 27.9583 23.9531 29.5183 23.9531 31.4426V31.5778C23.9531 33.8642 26.0468 35.5778 28.2881 35.1258L30.9271 34.5937C30.7917 34.6197 30.651 34.6457 30.5156 34.6718Z" fill="#3D4146"/>
</g>
<mask id="mask1_478_3987" style="mask-type:luminance" maskUnits="userSpaceOnUse" x="9" y="13" width="23" height="34">
<path d="M9.33325 13.3333H31.9999V46.703H9.33325V13.3333Z" fill="white"/>
</mask>
<g mask="url(#mask1_478_3987)">
<path fill-rule="evenodd" clip-rule="evenodd" d="M16.9791 34.9479C16.9791 33.6435 16.9024 32.2636 16.792 30.8505C16.3358 25.0125 21.0091 20.4243 26.844 20.9185L27.4374 20.9687C29.3541 20.9687 30.9218 19.401 30.9218 17.474C30.9218 15.5521 29.3541 13.9844 27.4374 13.9844H20.0051C14.4823 13.9844 10.0051 18.4615 10.0051 23.9844C10.0051 27.6384 10.0051 31.2932 10.0051 34.9479V40.6508C10.0051 43.3367 12.9142 45.0142 15.2389 43.6687V43.6687C16.3159 43.0453 16.9791 41.8952 16.9791 40.6508V34.9479Z" fill="#418CFD"/>
</g>
</svg>
